<?xml version="1.0" standalone="no"?>
<!DOCTYPE svg PUBLIC "-//W3C//DTD SVG 20010904//EN"
 "http://www.w3.org/TR/2001/REC-SVG-20010904/DTD/svg10.dtd">
<svg version="1.0" xmlns="http://www.w3.org/2000/svg"
 width="800.000000pt" height="800.000000pt" viewBox="0 0 800.000000 800.000000"
 preserveAspectRatio="xMidYMid meet">
<metadata>
Created by potrace 1.14, written by Peter Selinger 2001-2017
</metadata>
<g transform="translate(0.000000,800.000000) scale(0.100000,-0.100000)"
fill="#000000" stroke="none">
<path d="M1 6143 c1 -1071 5 -1820 10 -1768 16 172 61 430 105 606 403 1608
1759 2804 3404 3003 101 12 -100 14 -1702 15 l-1818 1 1 -1857z"/>
<path d="M3762 5973 l3 -2028 24 -45 c13 -25 469 -816 1012 -1758 544 -942
989 -1717 989 -1721 0 -12 -225 -112 -385 -173 -314 -119 -700 -207 -1045
-237 -55 -5 694 -9 1773 -10 l1867 -1 -1 1818 c-1 1072 -5 1786 -10 1742 -130
-1129 -716 -2136 -1632 -2804 -65 -47 -124 -86 -131 -86 -11 0 -1777 3045
-1784 3076 -3 12 269 14 1777 14 l1781 0 0 245 0 245 -1875 0 -1875 0 0 1875
0 1875 -245 0 -245 0 2 -2027z"/>
<path d="M4490 7984 c1471 -178 2736 -1168 3263 -2554 106 -277 186 -595 226
-900 l19 -145 1 1808 1 1807 -1812 -1 c-1598 -1 -1799 -3 -1698 -15z"/>
<path d="M2 1863 l-2 -1863 1868 2 c1027 1 1849 3 1827 5 -212 17 -465 58
-652 103 -1511 372 -2675 1591 -2972 3115 -26 129 -52 319 -64 460 -2 22 -4
-798 -5 -1822z"/>
</g>
</svg>
